name C:\Users\u0101727\Documents\MyRepositories\upper-imu-dc\Results\main_tracking\Case_46\FLX02_linearAccelerations_bodyFrame.mot
datacolumns 4
datarows 82
range 2.13000000 2.94000000
endheader 
time	radius_imu_x	radius_imu_y	radius_imu_z	
          2.13000000	         -3.64186221	          1.55982358	          9.27231107	
          2.14000000	         -3.81886328	          1.44772754	          9.19119804	
          2.15000000	         -3.98439724	          1.32791036	          9.10066814	
          2.16000000	         -4.13917743	          1.20103028	          9.00148740	
          2.17000000	         -4.28403190	          1.06793958	          8.89511407	
          2.18000000	         -4.42013756	          0.92975918	          8.78422374	
          2.19000000	         -4.54924525	          0.78787770	          8.67293101	
          2.20000000	         -4.67373241	          0.64383031	          8.56640668	
          2.21000000	         -4.79637888	          0.49904278	          8.46980253	
          2.22000000	         -4.91991612	          0.35451314	          8.38679508	
          2.23000000	         -5.04656176	          0.21058486	          8.31838551	
          2.24000000	         -5.17768817	          0.06692769	          8.26251204	
          2.25000000	         -5.31370460	         -0.07727901	          8.21462832	
          2.26000000	         -5.45418512	         -0.22305457	          8.16898207	
          2.27000000	         -5.59808889	         -0.37132663	          8.12009814	
          2.28000000	         -5.74398319	         -0.52270326	          8.06407503	
          2.29000000	         -5.88999737	         -0.67733018	          7.99934271	
          2.30000000	         -6.03538318	         -0.83477424	          7.92760324	
          2.31000000	         -6.17835612	         -0.99430690	          7.85135814	
          2.32000000	         -6.31680754	         -1.15538971	          7.77046588	
          2.33000000	         -6.45047652	         -1.31695912	          7.69065156	
          2.34000000	         -6.57705109	         -1.47857304	          7.61213509	
          2.35000000	         -6.69510410	         -1.63984251	          7.53605314	
          2.36000000	         -6.80309769	         -1.80060579	          7.46228563	
          2.37000000	         -6.89954104	         -1.96082846	          7.39040474	
          2.38000000	         -6.98286240	         -2.12057646	          7.31970612	
          2.39000000	         -7.05143523	         -2.27997631	          7.24932400	
          2.40000000	         -7.10367525	         -2.43916577	          7.17840559	
          2.41000000	         -7.13819240	         -2.59823575	          7.10630161	
          2.42000000	         -7.15395623	         -2.75716769	          7.03273481	
          2.43000000	         -7.15040600	         -2.91578309	          6.95790690	
          2.44000000	         -7.12746373	         -3.07372828	          6.88251251	
          2.45000000	         -7.08545765	         -3.23050092	          6.80766443	
          2.46000000	         -7.02499824	         -3.38550649	          6.73476355	
          2.47000000	         -6.94685903	         -3.53812644	          6.66535469	
          2.48000000	         -6.85191064	         -3.68776571	          6.60101029	
          2.49000000	         -6.74112843	         -3.83385791	          6.54326508	
          2.50000000	         -6.61568772	         -3.97584775	          6.49356275	
          2.51000000	         -6.47708092	         -4.11319676	          6.45316100	
          2.52000000	         -6.32719185	         -4.24543567	          6.42296820	
          2.53000000	         -6.16828019	         -4.37224100	          6.40335208	
          2.54000000	         -6.00287521	         -4.49350518	          6.39397609	
          2.55000000	         -5.83362373	         -4.60937783	          6.39370848	
          2.56000000	         -5.66316219	         -4.72026744	          6.40063822	
          2.57000000	         -5.49405761	         -4.82679780	          6.41221767	
          2.58000000	         -5.32879530	         -4.92971498	          6.42551986	
          2.59000000	         -5.16973313	         -5.02975656	          6.43755575	
          2.60000000	         -5.01896655	         -5.12753206	          6.44556546	
          2.61000000	         -4.87813003	         -5.22347932	          6.44721514	
          2.62000000	         -4.74821682	         -5.31790362	          6.44068914	
          2.63000000	         -4.62950761	         -5.41103803	          6.42475729	
          2.64000000	         -4.52164909	         -5.50307175	          6.39878927	
          2.65000000	         -4.42385022	         -5.59412112	          6.36276789	
          2.66000000	         -4.33507782	         -5.68418664	          6.31721959	
          2.67000000	         -4.25417009	         -5.77316363	          6.26305626	
          2.68000000	         -4.17986418	         -5.86092823	          6.20135166	
          2.69000000	         -4.11081693	         -5.94744904	          6.13311823	
          2.70000000	         -4.04568927	         -6.03285551	          6.05913405	
          2.71000000	         -3.98327661	         -6.11742939	          5.97983168	
          2.72000000	         -3.92260560	         -6.20153589	          5.89526329	
          2.73000000	         -3.86293462	         -6.28553489	          5.80518025	
          2.74000000	         -3.80365256	         -6.36970090	          5.70923496	
          2.75000000	         -3.74412343	         -6.45417873	          5.60723421	
          2.76000000	         -3.68354904	         -6.53899234	          5.49933250	
          2.77000000	         -3.62090926	         -6.62408278	          5.38609314	
          2.78000000	         -3.55500327	         -6.70933599	          5.26842470	
          2.79000000	         -3.48458644	         -6.79458282	          5.14745955	
          2.80000000	         -3.40858132	         -6.87958006	          5.02444562	
          2.81000000	         -3.32632604	         -6.96400209	          4.90067719	
          2.82000000	         -3.23780306	         -7.04746619	          4.77744261	
          2.83000000	         -3.14377829	         -7.12958543	          4.65594411	
          2.84000000	         -3.04580446	         -7.21002583	          4.53718821	
          2.85000000	         -2.94608587	         -7.28854445	          4.42188065	
          2.86000000	         -2.84724159	         -7.36499577	          4.31037626	
          2.87000000	         -2.75201716	         -7.43930996	          4.20271185	
          2.88000000	         -2.66299087	         -7.51146058	          4.09871481	
          2.89000000	         -2.58230872	         -7.58143949	          3.99814860	
          2.90000000	         -2.51148160	         -7.64924653	          3.90084328	
          2.91000000	         -2.45128116	         -7.71488993	          3.80677872	
          2.92000000	         -2.40175392	         -7.77839101	          3.71612109	
          2.93000000	         -2.36233237	         -7.83978793	          3.62922873	
          2.94000000	         -2.33198122	         -7.89913322	          3.54663671	
